<?xml version="1.0" encoding="utf-8"?>
<!-- Generator: Adobe Illustrator 26.5.0, SVG Export Plug-In . SVG Version: 6.00 Build 0)  -->
<svg version="1.1" id="Calque_1" xmlns="http://www.w3.org/2000/svg" xmlns:xlink="http://www.w3.org/1999/xlink" x="0px" y="0px"
	 viewBox="0 0 248 95" style="enable-background:new 0 0 248 95;" xml:space="preserve">
<style type="text/css">
	.st0{opacity:0;}
	.st1{fill-rule:evenodd;clip-rule:evenodd;fill:none;}
	.st2{fill:#FFFFFF;}
	.st3{fill-rule:evenodd;clip-rule:evenodd;fill:#FFFFFF;}
</style>
<g>
	<g class="st0">
		<g>
			<rect x="-0.223" y="0.17" class="st1" width="248.445" height="94.659"/>
		</g>
	</g>
	<g>
		<g>
			<g>
				<g>
					<path class="st2" d="M102.759,70.787V57.677h-0.1c-0.466,0.426-2.188,0.465-2.92,0.465h-1.268v0.105
						c1.465,0.896,1.264,2.225,1.264,3.877l0.004,5.547c0,2.775-2.727,4.723-4.922,4.723c-2.893,0-4.096-2.057-4.096-5.369v-9.348
						h-0.098c-0.467,0.426-2.201,0.465-2.933,0.465h-1.255v0.105c1.465,0.896,1.264,2.225,1.264,3.877v5.529
						c0,5.062,2.195,7.469,6.121,7.469c2.327,0,4.719-0.826,5.918-2.803v2.395h4.284v-0.109
						C102.562,73.779,102.759,72.443,102.759,70.787z"/>
					<path class="st2" d="M109.403,63.777c0.401-2.254,2.064-3.684,4.295-3.684c2.396,0,3.926,1.18,4.291,3.684H109.403z
						 M121.485,65.865c0.132-4.627-2.963-8.121-7.488-8.121c-4.959,0-8.318,3.6-8.318,8.592c0,5.027,3.891,8.857,9.549,8.857
						c1.564,0,3.162-0.25,4.594-0.891l1.664-3.375h-0.1c-1.531,1.301-3.46,1.92-5.459,1.92c-3.76,0-6.588-2.57-6.654-6.982H121.485z
						"/>
					<path class="st2" d="M124.127,50.058c0.797,0,2.422-0.049,2.914-0.533h0.1v22.707c0.895,0.25,1.818,0.43,2.742,0.43
						c3.639,0,5.721-2.543,5.721-6.09c0-3.473-1.621-6.16-4.959-6.16c-1.059,0-1.885,0.285-2.777,0.789l1.787-3.059
						c0.758-0.289,1.553-0.399,2.346-0.399c3.772,0,6.977,3.277,6.977,8.186c0,5.621-3.803,9.256-9.82,9.256
						c-2.246,0-4.406-0.396-6.036-0.646v-0.109c1.099-0.506,0.999-1.695,0.999-2.879V55.044c0-1.656,0.199-3.976-1.23-4.877v-0.109
						H124.127z"/>
					<path class="st2" d="M144.885,63.777c0.398-2.254,2.064-3.684,4.291-3.684c2.396,0,3.928,1.18,4.295,3.684H144.885z
						 M156.963,65.865c0.135-4.627-2.961-8.121-7.488-8.121c-4.955,0-8.314,3.6-8.314,8.592c0,5.027,3.891,8.857,9.547,8.857
						c1.564,0,3.162-0.25,4.592-0.891l1.664-3.375h-0.098c-1.533,1.301-3.463,1.92-5.459,1.92c-3.76,0-6.586-2.57-6.654-6.982
						H156.963z"/>
					<path class="st2" d="M171.848,61.861h-0.1c-0.967-1.191-2.564-1.768-4.062-1.768c-3.227,0-5.555,2.449-5.555,5.871
						c0,4.145,3.229,6.883,6.92,6.883c1.697,0,3.561-0.721,4.859-1.768h0.102l-1.732,3.402c-1.398,0.57-2.928,0.711-4.395,0.711
						c-5.123,0-9.129-3.607-9.129-8.291c0-6.193,4.473-9.158,9.496-9.158c1.199,0,2.43,0.145,3.596,0.43V61.861z"/>
					<path class="st3" d="M117.333,54.773c0-1.674,0-3.604,0-3.604c-2.182,0.98-4.206,2.809-5.558,4.588v1.402
						C115.011,54.978,117.333,54.875,117.333,54.773z"/>
					<path class="st2" d="M72.743,72.716c-5.025,0-8.521-5.67-8.521-10.486c0-0.049,0-0.496,0.002-0.541
						c0.061-4.666,3.08-9.043,8.353-9.043c5.546,0,8.407,5.25,8.453,10.217c0,0.043,0,0.479,0,0.52
						C81.029,68.681,77.735,72.716,72.743,72.716z M89.966,78.226c-3.709,0.607-7.277-0.562-11.066-4.896
						c3.661-1.84,5.926-6.416,5.926-10.668c0-0.045-0.002-0.484-0.002-0.529c-0.065-7.275-5.531-12.08-12.049-12.08
						c-6.528,0-12.297,5.002-12.347,12.336c0,0.031,0,0.457,0,0.488c0,7.137,5.293,12.432,11.78,12.432
						c0.933,0,1.832-0.145,2.73-0.359c4.25,3.984,8.041,5.676,11.311,5.281c1.554-0.186,3.196-0.801,4.181-2.084L89.966,78.226z"/>
				</g>
			</g>
			<g>
				<path class="st2" d="M20.791,20.246h7.561l-0.408,1.887h-2.492l-1.675,7.885h-2.633l1.676-7.885h-2.422L20.791,20.246z"/>
				<path class="st2" d="M34.223,22.738L33.66,24.85c-0.469-0.131-0.835-0.197-1.098-0.197c-0.61,0-1.08,0.23-1.408,0.69
					c-0.235,0.329-0.427,0.845-0.578,1.548L29.9,30.017h-2.534l1.479-7.265h2.295l-0.268,1.323c0.694-0.995,1.492-1.492,2.394-1.492
					C33.547,22.583,33.866,22.635,34.223,22.738z"/>
				<path class="st2" d="M40.686,30.017h-2.098l0.141-1.098c-0.563,0.835-1.399,1.253-2.506,1.253c-0.694,0-1.262-0.183-1.704-0.549
					c-0.479-0.395-0.718-0.93-0.718-1.605c0-0.966,0.479-1.67,1.44-2.112c0.725-0.338,1.675-0.507,2.851-0.507
					c0.386,0,0.772,0.019,1.158,0.056v-0.239c0.047-0.751-0.418-1.126-1.394-1.126c-0.845,0-1.633,0.183-2.365,0.549l0.295-1.69
					c0.789-0.281,1.591-0.422,2.408-0.422c0.901,0,1.647,0.16,2.239,0.479c0.751,0.394,1.126,1.004,1.126,1.83
					c0,0.629-0.126,1.493-0.38,2.591C40.888,28.646,40.723,29.51,40.686,30.017z M38.94,26.708
					c-0.169-0.019-0.409-0.028-0.718-0.028c-1.371,0-2.056,0.375-2.056,1.126c0,0.253,0.089,0.453,0.268,0.598
					c0.178,0.146,0.399,0.218,0.662,0.218c0.498,0,0.92-0.202,1.267-0.605C38.672,27.67,38.865,27.234,38.94,26.708z"/>
				<path class="st2" d="M49.922,30.017h-2.52c0.178-0.723,0.352-1.445,0.521-2.168c0.216-0.929,0.324-1.656,0.324-2.182
					c0-0.713-0.305-1.07-0.915-1.07c-0.995,0-1.662,0.789-2,2.366l-0.648,3.055H42.15l1.549-7.308h2.267l-0.282,1.295
					c0.826-0.938,1.746-1.408,2.76-1.408c0.77,0,1.356,0.228,1.76,0.683c0.403,0.456,0.605,1.073,0.605,1.852
					c0,0.667-0.108,1.488-0.324,2.464C50.297,28.403,50.11,29.21,49.922,30.017z"/>
				<path class="st2" d="M58.37,23.005l-0.549,1.591c-0.816-0.272-1.455-0.408-1.915-0.408c-0.751,0-1.126,0.221-1.126,0.662
					c0,0.244,0.258,0.47,0.774,0.676c0.779,0.31,1.253,0.521,1.422,0.634c0.516,0.347,0.774,0.821,0.774,1.422
					c0,0.883-0.366,1.559-1.098,2.028c-0.62,0.404-1.394,0.605-2.323,0.605c-1.023,0-1.985-0.155-2.887-0.465l0.521-1.746
					c0.667,0.329,1.342,0.493,2.028,0.493c0.845,0,1.267-0.216,1.267-0.648c0-0.281-0.249-0.53-0.746-0.746
					c-0.77-0.329-1.23-0.549-1.38-0.662c-0.498-0.357-0.747-0.854-0.747-1.493c0-0.807,0.39-1.427,1.169-1.858
					c0.638-0.347,1.394-0.521,2.267-0.521C56.591,22.569,57.44,22.714,58.37,23.005z"/>
				<path class="st2" d="M61.425,28.806l-0.774,3.9h-2.534l2.069-9.997h2.267l-0.282,1.281c0.704-0.948,1.586-1.422,2.647-1.422
					c0.911,0,1.62,0.319,2.126,0.958c0.469,0.582,0.704,1.342,0.704,2.281c0,1.23-0.324,2.253-0.971,3.069
					c-0.704,0.892-1.657,1.338-2.858,1.338C62.73,30.214,61.932,29.745,61.425,28.806z M65.058,25.906
					c0-0.413-0.108-0.758-0.324-1.035s-0.525-0.416-0.929-0.416c-0.554,0-1.019,0.263-1.394,0.789
					c-0.338,0.469-0.507,0.995-0.507,1.577c0,0.441,0.118,0.808,0.352,1.098c0.235,0.292,0.563,0.437,0.986,0.437
					c0.563,0,1.018-0.276,1.366-0.831C64.908,27.037,65.058,26.497,65.058,25.906z"/>
				<path class="st2" d="M73.112,22.583c1.126,0,2.022,0.281,2.689,0.845c0.713,0.61,1.07,1.464,1.07,2.562
					c0,1.324-0.46,2.37-1.38,3.14c-0.854,0.732-1.957,1.099-3.309,1.099c-1.099,0-1.981-0.272-2.647-0.817
					c-0.713-0.591-1.07-1.422-1.07-2.492c0-1.361,0.441-2.431,1.323-3.21C70.624,22.958,71.732,22.583,73.112,22.583z
					 M74.323,25.877c0-0.459-0.108-0.835-0.324-1.126c-0.244-0.338-0.586-0.507-1.028-0.507c-0.601,0-1.089,0.301-1.464,0.901
					c-0.319,0.526-0.479,1.107-0.479,1.746c0,0.441,0.117,0.817,0.352,1.126c0.263,0.338,0.61,0.507,1.042,0.507
					c0.601,0,1.079-0.305,1.436-0.915C74.167,27.093,74.323,26.516,74.323,25.877z"/>
				<path class="st2" d="M84.319,22.738l-0.563,2.112c-0.469-0.131-0.835-0.197-1.098-0.197c-0.61,0-1.08,0.23-1.408,0.69
					c-0.235,0.329-0.427,0.845-0.578,1.548l-0.676,3.126h-2.534l1.478-7.265h2.295l-0.268,1.323
					c0.694-0.995,1.492-1.492,2.394-1.492C83.644,22.583,83.962,22.635,84.319,22.738z"/>
				<path class="st2" d="M88.881,20.358L88.36,22.78h1.789l-0.366,1.732h-1.788c-0.132,0.524-0.263,1.043-0.395,1.557
					c-0.16,0.646-0.239,1.174-0.239,1.585c0,0.496,0.263,0.744,0.789,0.744c0.216,0,0.493-0.042,0.831-0.127l-0.366,1.719
					c-0.601,0.103-1.066,0.154-1.394,0.154c-0.723,0-1.291-0.183-1.704-0.548c-0.441-0.384-0.662-0.932-0.662-1.644
					c0-0.468,0.08-1.044,0.24-1.727c0.131-0.571,0.267-1.143,0.408-1.714h-1.479l0.366-1.732h1.479l0.366-1.718L88.881,20.358z"/>
				<path class="st2" d="M96.709,23.005l-0.549,1.591c-0.816-0.272-1.455-0.408-1.915-0.408c-0.751,0-1.126,0.221-1.126,0.662
					c0,0.244,0.258,0.47,0.774,0.676c0.779,0.31,1.253,0.521,1.422,0.634c0.516,0.347,0.774,0.821,0.774,1.422
					c0,0.883-0.366,1.559-1.098,2.028c-0.62,0.404-1.394,0.605-2.323,0.605c-1.023,0-1.985-0.155-2.887-0.465l0.521-1.746
					c0.667,0.329,1.342,0.493,2.028,0.493c0.845,0,1.267-0.216,1.267-0.648c0-0.281-0.249-0.53-0.746-0.746
					c-0.77-0.329-1.23-0.549-1.38-0.662c-0.498-0.357-0.747-0.854-0.747-1.493c0-0.807,0.39-1.427,1.169-1.858
					c0.638-0.347,1.394-0.521,2.267-0.521C94.93,22.569,95.78,22.714,96.709,23.005z"/>
				<path class="st2" d="M27.31,41.126h-5.196c0.094,1.042,0.713,1.563,1.858,1.563c0.808,0,1.628-0.183,2.464-0.549l-0.282,1.788
					c-0.873,0.272-1.765,0.408-2.675,0.408c-1.089,0-1.957-0.291-2.604-0.873c-0.686-0.61-1.028-1.45-1.028-2.52
					c0-1.314,0.432-2.37,1.295-3.168c0.826-0.77,1.901-1.155,3.225-1.155c0.995,0,1.762,0.272,2.302,0.816
					c0.54,0.545,0.81,1.314,0.81,2.31C27.479,40.16,27.422,40.619,27.31,41.126z M25.381,39.732
					c0.019-0.141,0.028-0.253,0.028-0.338c0-0.395-0.113-0.711-0.338-0.951c-0.226-0.239-0.535-0.359-0.93-0.359
					c-0.432,0-0.802,0.174-1.112,0.521c-0.272,0.291-0.469,0.667-0.591,1.126H25.381z"/>
				<path class="st2" d="M33.153,34.438l-0.521,2.422h1.788l-0.366,1.732h-1.788c-0.132,0.524-0.263,1.043-0.395,1.557
					c-0.16,0.646-0.239,1.174-0.239,1.585c0,0.496,0.263,0.744,0.789,0.744c0.216,0,0.493-0.042,0.831-0.127l-0.366,1.719
					c-0.601,0.103-1.065,0.154-1.394,0.154c-0.723,0-1.291-0.183-1.704-0.548c-0.441-0.383-0.662-0.931-0.662-1.643
					c0-0.468,0.08-1.044,0.239-1.728c0.131-0.571,0.268-1.142,0.409-1.713h-1.479l0.366-1.732h1.478l0.366-1.718L33.153,34.438z"/>
				<path class="st2" d="M40.446,34.326h4.055c0.047,0.901,0.094,1.797,0.141,2.689c0.056,1.08,0.084,1.981,0.084,2.704
					c0,0.544-0.014,1.056-0.042,1.535c0.282-0.967,0.755-2.145,1.422-3.534c0.544-1.136,1.089-2.267,1.633-3.393h4.196l-2.112,9.757
					h-2.408c0.272-1.352,0.544-2.699,0.817-4.041c0.329-1.586,0.643-2.929,0.943-4.027l-3.886,8.068h-2.408l-0.464-8.068
					c-0.235,1.342-0.789,4.032-1.662,8.068h-2.394L40.446,34.326z"/>
				<path class="st2" d="M56.666,36.663c1.126,0,2.023,0.281,2.689,0.845c0.713,0.61,1.07,1.464,1.07,2.562
					c0,1.323-0.46,2.37-1.38,3.14c-0.854,0.732-1.957,1.098-3.309,1.098c-1.098,0-1.98-0.272-2.647-0.816
					C52.376,42.9,52.02,42.069,52.02,41c0-1.361,0.441-2.431,1.324-3.21C54.179,37.039,55.286,36.663,56.666,36.663z M57.877,39.958
					c0-0.46-0.108-0.835-0.324-1.126c-0.244-0.338-0.587-0.507-1.028-0.507c-0.601,0-1.089,0.301-1.464,0.901
					c-0.319,0.525-0.479,1.107-0.479,1.746c0,0.441,0.118,0.817,0.352,1.126c0.263,0.338,0.61,0.507,1.042,0.507
					c0.601,0,1.08-0.305,1.436-0.915C57.722,41.173,57.877,40.596,57.877,39.958z"/>
				<path class="st2" d="M63.129,34.326h2.506l-0.76,3.45c0.676-0.751,1.479-1.126,2.408-1.126c0.911,0,1.619,0.319,2.126,0.958
					c0.46,0.591,0.69,1.352,0.69,2.281c0,1.23-0.324,2.253-0.971,3.069c-0.714,0.892-1.667,1.338-2.858,1.338
					c-1.146,0-1.995-0.554-2.548-1.662l-0.352,1.464h-2.281L63.129,34.326z M67.507,39.986c0-0.413-0.108-0.758-0.324-1.035
					c-0.216-0.276-0.526-0.415-0.929-0.415c-0.554,0-1.019,0.263-1.394,0.788c-0.338,0.47-0.507,0.995-0.507,1.577
					c0,0.441,0.117,0.808,0.352,1.098c0.234,0.291,0.563,0.437,0.986,0.437c0.563,0,1.018-0.277,1.366-0.831
					C67.357,41.117,67.507,40.577,67.507,39.986z"/>
				<path class="st2" d="M72.351,36.846h2.464l-1.577,7.251h-2.464L72.351,36.846z M72.858,34.326h2.478l-0.253,1.295h-2.464
					L72.858,34.326z"/>
				<path class="st2" d="M77.363,34.34h2.506l-2.112,9.757h-2.506L77.363,34.34z"/>
				<path class="st2" d="M81.531,36.846h2.464l-1.577,7.251h-2.464L81.531,36.846z M82.038,34.326h2.478l-0.253,1.295h-2.464
					L82.038,34.326z"/>
				<path class="st2" d="M89.458,34.438l-0.521,2.422h1.788l-0.366,1.732h-1.788c-0.131,0.524-0.263,1.043-0.394,1.557
					c-0.16,0.646-0.239,1.174-0.239,1.585c0,0.496,0.263,0.744,0.788,0.744c0.216,0,0.493-0.042,0.831-0.127L89.19,44.07
					c-0.601,0.103-1.065,0.154-1.394,0.154c-0.723,0-1.291-0.183-1.704-0.548c-0.441-0.383-0.662-0.931-0.662-1.643
					c0-0.468,0.08-1.044,0.239-1.728c0.131-0.571,0.268-1.142,0.408-1.713h-1.478l0.366-1.732h1.479l0.366-1.718L89.458,34.438z"/>
				<path class="st2" d="M98.3,41.126h-5.195c0.094,1.042,0.713,1.563,1.858,1.563c0.807,0,1.628-0.183,2.464-0.549l-0.282,1.788
					c-0.873,0.272-1.765,0.408-2.675,0.408c-1.089,0-1.957-0.291-2.605-0.873c-0.685-0.61-1.028-1.45-1.028-2.52
					c0-1.314,0.432-2.37,1.295-3.168c0.826-0.77,1.901-1.155,3.225-1.155c0.995,0,1.762,0.272,2.302,0.816
					c0.54,0.545,0.81,1.314,0.81,2.31C98.469,40.16,98.413,40.619,98.3,41.126z M96.371,39.732c0.019-0.141,0.028-0.253,0.028-0.338
					c0-0.395-0.113-0.711-0.338-0.951c-0.226-0.239-0.535-0.359-0.93-0.359c-0.432,0-0.802,0.174-1.112,0.521
					c-0.272,0.291-0.469,0.667-0.591,1.126H96.371z M93.949,35.691l1.352-1.858h2.633v0.31l-2.323,1.718h-1.662V35.691z"/>
				<path class="st2" d="M110.662,34.326h2.492l-2.056,9.771h-2.253l0.268-1.211c-0.704,0.948-1.586,1.422-2.647,1.422
					c-0.911,0-1.619-0.314-2.126-0.943c-0.47-0.582-0.704-1.342-0.704-2.281c0-1.229,0.329-2.257,0.985-3.083
					c0.704-0.892,1.657-1.337,2.858-1.337c1.089,0,1.882,0.474,2.379,1.422L110.662,34.326z M109.395,40.014
					c0-0.413-0.122-0.762-0.366-1.049c-0.244-0.286-0.573-0.429-0.985-0.429c-0.573,0-1.033,0.286-1.38,0.859
					c-0.291,0.479-0.437,1.023-0.437,1.633c0,0.394,0.112,0.728,0.338,1c0.225,0.272,0.53,0.408,0.915,0.408
					c0.572,0,1.046-0.268,1.422-0.802C109.23,41.154,109.395,40.615,109.395,40.014z"/>
				<path class="st2" d="M114.21,36.86h2.534c-0.169,0.723-0.343,1.45-0.521,2.183c-0.216,0.938-0.324,1.661-0.324,2.168
					c0,0.723,0.319,1.084,0.958,1.084c0.966,0,1.619-0.793,1.957-2.379l0.647-3.056h2.535l-1.549,7.237h-2.267l0.282-1.225
					c-0.826,0.939-1.746,1.408-2.76,1.408c-0.77,0-1.356-0.226-1.76-0.676c-0.404-0.451-0.605-1.065-0.605-1.845
					c0-0.667,0.103-1.493,0.31-2.478C113.834,38.475,114.022,37.667,114.21,36.86z"/>
				<path class="st2" d="M129.121,36.818l-0.563,2.112c-0.47-0.131-0.836-0.197-1.099-0.197c-0.61,0-1.079,0.23-1.407,0.69
					c-0.235,0.329-0.428,0.845-0.578,1.549l-0.676,3.126h-2.534l1.479-7.265h2.295l-0.268,1.323
					c0.694-0.995,1.493-1.492,2.394-1.492C128.445,36.663,128.764,36.714,129.121,36.818z"/>
				<path class="st2" d="M135.583,44.097h-2.098l0.141-1.098c-0.562,0.835-1.398,1.253-2.506,1.253
					c-0.694,0-1.263-0.183-1.704-0.549c-0.479-0.394-0.718-0.929-0.718-1.605c0-0.967,0.479-1.67,1.44-2.112
					c0.725-0.338,1.675-0.507,2.851-0.507c0.387,0,0.772,0.019,1.158,0.056v-0.239c0.047-0.751-0.418-1.126-1.395-1.126
					c-0.845,0-1.633,0.183-2.365,0.549l0.296-1.69c0.788-0.281,1.591-0.422,2.407-0.422c0.901,0,1.647,0.16,2.239,0.479
					c0.751,0.394,1.126,1.004,1.126,1.83c0,0.629-0.126,1.493-0.38,2.591C135.785,42.727,135.621,43.59,135.583,44.097z
					 M133.838,40.788c-0.169-0.019-0.408-0.028-0.719-0.028c-1.37,0-2.056,0.375-2.056,1.126c0,0.253,0.09,0.453,0.268,0.598
					c0.179,0.146,0.399,0.218,0.662,0.218c0.497,0,0.92-0.202,1.267-0.605C133.57,41.75,133.763,41.314,133.838,40.788z"/>
				<path class="st2" d="M139.23,34.326h2.506l-0.761,3.45c0.676-0.751,1.479-1.126,2.408-1.126c0.91,0,1.619,0.319,2.126,0.958
					c0.46,0.591,0.689,1.352,0.689,2.281c0,1.23-0.323,2.253-0.971,3.069c-0.714,0.892-1.667,1.338-2.858,1.338
					c-1.146,0-1.995-0.554-2.549-1.662l-0.352,1.464h-2.281L139.23,34.326z M143.609,39.986c0-0.413-0.108-0.758-0.324-1.035
					c-0.216-0.276-0.525-0.415-0.93-0.415c-0.554,0-1.019,0.263-1.394,0.788c-0.338,0.47-0.507,0.995-0.507,1.577
					c0,0.441,0.117,0.808,0.352,1.098c0.235,0.291,0.563,0.437,0.986,0.437c0.562,0,1.018-0.277,1.365-0.831
					C143.459,41.117,143.609,40.577,143.609,39.986z"/>
				<path class="st2" d="M148.875,34.34h2.506l-2.111,9.757h-2.507L148.875,34.34z"/>
				<path class="st2" d="M159.068,41.126h-5.195c0.094,1.042,0.713,1.563,1.858,1.563c0.808,0,1.629-0.183,2.464-0.549l-0.281,1.788
					c-0.873,0.272-1.765,0.408-2.675,0.408c-1.09,0-1.957-0.291-2.605-0.873c-0.685-0.61-1.027-1.45-1.027-2.52
					c0-1.314,0.432-2.37,1.295-3.168c0.826-0.77,1.901-1.155,3.225-1.155c0.995,0,1.762,0.272,2.302,0.816
					c0.54,0.545,0.81,1.314,0.81,2.31C159.237,40.16,159.182,40.619,159.068,41.126z M157.14,39.732
					c0.019-0.141,0.028-0.253,0.028-0.338c0-0.395-0.112-0.711-0.338-0.951s-0.535-0.359-0.93-0.359
					c-0.432,0-0.803,0.174-1.112,0.521c-0.272,0.291-0.47,0.667-0.591,1.126H157.14z"/>
			</g>
		</g>
		<g>
			<g>
				<path class="st2" d="M191.14,54.842c-1.266,0.4-1.279-0.733-1.279-0.733c1.123,0.198,1.234-0.749,1.234-0.749h-2.244v-1.059
					h1.063c0,0-0.181-1.412-1.225-1.412c-0.965,0-1.097,1.068-0.921,1.511c-0.483,0.082-1.191-0.753-1.191-1.736
					c0-1.252,0.994-1.921,1.871-1.921c1.416,0,2.476,1.635,2.476,3.559h0.434c0,0,0.093-0.924-0.101-1.771
					c-0.304-1.331-0.965-2.117-0.98-3.02c-0.025-1.569,0.92-1.82,1.676-3.189c0.755,1.369,1.7,1.62,1.674,3.189
					c-0.014,0.902-0.676,1.688-0.978,3.02c-0.193,0.848-0.102,1.771-0.102,1.771h0.434c0-1.924,1.06-3.559,2.477-3.559
					c0.877,0,1.869,0.669,1.869,1.921c0,0.983-0.707,1.818-1.19,1.736c0.176-0.442,0.044-1.511-0.921-1.511
					c-1.044,0-1.225,1.412-1.225,1.412h1.064v1.059h-2.245c0,0,0.111,0.947,1.234,0.749c0,0-0.013,1.134-1.28,0.733
					c0,0-0.05,1.012-0.811,1.378C191.19,55.854,191.14,54.842,191.14,54.842z M202.029,44.1h-20.154v12.351h20.154V44.1z"/>
				<path class="st2" d="M217.177,54.842c-1.268,0.4-1.279-0.733-1.279-0.733c1.123,0.198,1.234-0.749,1.234-0.749h-2.244v-1.059
					h1.062c0,0-0.18-1.412-1.225-1.412c-0.965,0-1.097,1.068-0.92,1.511c-0.483,0.082-1.191-0.753-1.191-1.736
					c0-1.252,0.994-1.921,1.87-1.921c1.417,0,2.476,1.635,2.476,3.559h0.434c0,0,0.093-0.924-0.101-1.771
					c-0.304-1.331-0.965-2.117-0.979-3.02c-0.025-1.569,0.92-1.82,1.674-3.189c0.756,1.369,1.701,1.62,1.676,3.189
					c-0.016,0.902-0.676,1.688-0.98,3.02c-0.193,0.848-0.1,1.771-0.1,1.771h0.433c0-1.924,1.06-3.559,2.477-3.559
					c0.876,0,1.87,0.669,1.87,1.921c0,0.983-0.708,1.818-1.191,1.736c0.176-0.442,0.045-1.511-0.92-1.511
					c-1.045,0-1.225,1.412-1.225,1.412h1.062v1.059h-2.244c0,0,0.111,0.947,1.234,0.749c0,0-0.013,1.134-1.279,0.733
					c0,0-0.051,1.012-0.812,1.378C217.228,55.854,217.177,54.842,217.177,54.842z M228.065,44.1h-20.154v12.351h20.154V44.1z"/>
				<path class="st2" d="M191.14,73.1c-1.266,0.4-1.279-0.734-1.279-0.734c1.123,0.199,1.234-0.748,1.234-0.748h-2.244v-1.059h1.063
					c0,0-0.181-1.412-1.225-1.412c-0.965,0-1.097,1.068-0.921,1.511c-0.483,0.081-1.191-0.754-1.191-1.737
					c0-1.251,0.994-1.92,1.871-1.92c1.416,0,2.476,1.635,2.476,3.559h0.434c0,0,0.093-0.924-0.101-1.771
					c-0.304-1.331-0.965-2.117-0.98-3.02c-0.025-1.57,0.92-1.822,1.676-3.189c0.755,1.367,1.7,1.619,1.674,3.189
					c-0.014,0.902-0.676,1.688-0.978,3.02c-0.193,0.848-0.102,1.771-0.102,1.771h0.434c0-1.924,1.06-3.559,2.477-3.559
					c0.877,0,1.869,0.669,1.869,1.92c0,0.983-0.707,1.818-1.19,1.737c0.176-0.442,0.044-1.511-0.921-1.511
					c-1.044,0-1.225,1.412-1.225,1.412h1.064v1.059h-2.245c0,0,0.111,0.947,1.234,0.748c0,0-0.013,1.135-1.28,0.734
					c0,0-0.05,1.011-0.811,1.377C191.19,74.111,191.14,73.1,191.14,73.1z M202.029,62.358h-20.154V74.71h20.154V62.358z"/>
				<path class="st2" d="M217.177,73.1c-1.268,0.4-1.279-0.734-1.279-0.734c1.123,0.199,1.234-0.748,1.234-0.748h-2.244v-1.059
					h1.062c0,0-0.18-1.412-1.225-1.412c-0.965,0-1.097,1.068-0.92,1.511c-0.483,0.081-1.191-0.754-1.191-1.737
					c0-1.251,0.994-1.92,1.87-1.92c1.417,0,2.476,1.635,2.476,3.559h0.434c0,0,0.093-0.924-0.101-1.771
					c-0.304-1.331-0.965-2.117-0.979-3.02c-0.025-1.57,0.92-1.822,1.674-3.189c0.756,1.367,1.701,1.619,1.676,3.189
					c-0.016,0.902-0.676,1.688-0.98,3.02c-0.193,0.848-0.1,1.771-0.1,1.771h0.433c0-1.924,1.06-3.559,2.477-3.559
					c0.876,0,1.87,0.669,1.87,1.92c0,0.983-0.708,1.818-1.191,1.737c0.176-0.442,0.045-1.511-0.92-1.511
					c-1.045,0-1.225,1.412-1.225,1.412h1.062v1.059h-2.244c0,0,0.111,0.947,1.234,0.748c0,0-0.013,1.135-1.279,0.734
					c0,0-0.051,1.011-0.812,1.377C217.228,74.111,217.177,73.1,217.177,73.1z M228.065,62.358h-20.154V74.71h20.154V62.358z"/>
			</g>
		</g>
	</g>
</g>
</svg>
